<svg id="Layer_1" data-name="Layer 1" xmlns="http://www.w3.org/2000/svg" viewBox="0 0 2246.1 1415.09" preserveAspectRatio="none">
  <defs>
    <style>
      .cls-1 {
        fill: #fc9;
      }

      .cls-2 {
        fill: #fff;
      }

      .cls-3 {
        fill: none;
        stroke: #fff;
        stroke-miterlimit: 10;
      }
    </style>
  </defs>
  <title>section2BG</title>
  <rect class="cls-1" y="133.56" width="2246.1" height="1281.53"/>
  <g>
    <path class="cls-2" d="M2300.39,185.92c-196.88,10.45-357.45,10.37-468.34,8.32-398.26-7.37-597.37-48.28-910.33-9.63C834.5,195.38,838,200,738.5,214.79c-313.1,46.45-606.24,38.71-807.27,24.5l-.58-155.9H2299.82Z"/>
    <path class="cls-3" d="M2300.39,185.92c-196.88,10.45-357.45,10.37-468.34,8.32-398.26-7.37-597.37-48.28-910.33-9.63C834.5,195.38,838,200,738.5,214.79c-313.1,46.45-606.24,38.71-807.27,24.5l-.58-155.9H2299.82Z"/>
  </g>
  <g>
    <path class="cls-2" d="M2299.82,1435H-69.35l.58-155.9c201-14.21,494.17-21.95,807.27,24.49,99.51,14.76,96,19.41,183.22,30.19,313,38.65,512.07-2.26,910.33-9.63,110.89-2.05,271.46-2.13,468.34,8.31Z"/>
    <path class="cls-3" d="M2299.82,1435H-69.35l.58-155.9c201-14.21,494.17-21.95,807.27,24.49,99.51,14.76,96,19.41,183.22,30.19,313,38.65,512.07-2.26,910.33-9.63,110.89-2.05,271.46-2.13,468.34,8.31Z"/>
  </g>
</svg>
